<svg width="150" viewBox="0 0 100 125" xmlns="http://www.w3.org/2000/svg"><g><path d="M25 5H75C77.7614 5 80 7.23858 80 10V75L70 70L60 75L50 70L40 75L30 70L20 75V10C20 7.23858 22.2386 5 25 5Z" fill="#22c55e"></path><rect x="30" y="15" width="40" height="5" rx="2.5" fill="white"></rect><rect x="30" y="25" width="25" height="5" rx="2.5" fill="#bbf7d0"></rect><rect x="30" y="35" width="40" height="5" rx="2.5" fill="#bbf7d0"></rect><rect x="30" y="45" width="40" height="5" rx="2.5" fill="#bbf7d0"></rect><path d="M55 60H45C42.2386 60 40 57.7614 40 55V55C40 52.2386 42.2386 50 45 50H55C57.7614 50 60 52.2386 60 55V55C60 57.7614 57.7614 60 55 60Z" fill="white"></path></g><text x="50" y="95" font-family="Inter, sans-serif" font-size="16" font-weight="bold" text-anchor="middle" fill="#166534">ReciBox</text></svg>
